ffmpeg started on 2016-12-05 at 03:54:24
Report written to "Output/x264/results/ffmpeg/sintelveryfast7000k.log"
Command line:
Tools/ffmpeg/ffmpeg -benchmark -y -i Input/y4m/sintel.y4m -c:v libx264 -preset veryfast -b:v 7000k -an Output/x264/encoded/sintelveryfast7000k.mkv
ffmpeg version N-82227-gdb23fde Copyright (c) 2000-2016 the FFmpeg developers
  built with gcc 5.4.0 (Ubuntu 5.4.0-6ubuntu1~16.04.2) 20160609
  configuration: --prefix=/home/jaroslav/ffmpeg_build --pkg-config-flags=--static --extra-cflags=-I/home/jaroslav/ffmpeg_build/include --extra-ldflags=-L/home/jaroslav/ffmpeg_build/lib --bindir=/home/jaroslav/bin --enable-gpl --enable-libass --enable-libfdk-aac --enable-libfreetype --enable-libmp3lame --enable-libopus --enable-libtheora --enable-libvorbis --enable-libvpx --enable-libx264 --enable-libx265 --enable-nvenc --enable-libmfx --enable-libxvid --enable-libgsm --enable-libopencore-amrnb --enable-version3 --enable-nonfree
  libavutil      55. 35.100 / 55. 35.100
  libavcodec     57. 66.101 / 57. 66.101
  libavformat    57. 57.100 / 57. 57.100
  libavdevice    57.  2.100 / 57.  2.100
  libavfilter     6. 66.100 /  6. 66.100
  libswscale      4.  3.100 /  4.  3.100
  libswresample   2.  4.100 /  2.  4.100
  libpostproc    54.  2.100 / 54.  2.100
Input #0, yuv4mpegpipe, from 'Input/y4m/sintel.y4m':
  Duration: 00:00:20.83, start: 0.000000, bitrate: 2057307 kb/s
    Stream #0:0: Video: rawvideo (I420 / 0x30323449), yuv420p(progressive), 4096x1744, SAR 1:1 DAR 256:109, 24 fps, 24 tbr, 24 tbn, 24 tbc
[libx264 @ 0x2ce61c0] using SAR=1/1
[libx264 @ 0x2ce61c0] using cpu capabilities: MMX2 SSE2Fast SSSE3 SSE4.2 AVX FMA3 AVX2 LZCNT BMI2
[libx264 @ 0x2ce61c0] profile High, level 5.1
[libx264 @ 0x2ce61c0] 264 - core 148 - H.264/MPEG-4 AVC codec - Copyleft 2003-2016 - http://www.videolan.org/x264.html - options: cabac=1 ref=1 deblock=1:0:0 analyse=0x3:0x113 me=hex subme=2 psy=1 psy_rd=1.00:0.00 mixed_ref=0 me_range=16 chroma_me=1 trellis=0 8x8dct=1 cqm=0 deadzone=21,11 fast_pskip=1 chroma_qp_offset=0 threads=6 lookahead_threads=2 sliced_threads=0 nr=0 decimate=1 interlaced=0 bluray_compat=0 constrained_intra=0 bframes=3 b_pyramid=2 b_adapt=1 b_bias=0 direct=1 weightb=1 open_gop=0 weightp=1 keyint=250 keyint_min=24 scenecut=40 intra_refresh=0 rc_lookahead=10 rc=abr mbtree=1 bitrate=7000 ratetol=1.0 qcomp=0.60 qpmin=0 qpmax=69 qpstep=4 ip_ratio=1.40 aq=1:1.00
Output #0, matroska, to 'Output/x264/encoded/sintelveryfast7000k.mkv':
  Metadata:
    encoder         : Lavf57.57.100
    Stream #0:0: Video: h264 (libx264) (H264 / 0x34363248), yuv420p, 4096x1744 [SAR 1:1 DAR 256:109], q=-1--1, 7000 kb/s, 24 fps, 1k tbn, 24 tbc
    Metadata:
      encoder         : Lavc57.66.101 libx264
    Side data:
      cpb: bitrate max/min/avg: 0/0/7000000 buffer size: 0 vbv_delay: -1
Stream mapping:
  Stream #0:0 -> #0:0 (rawvideo (native) -> h264 (libx264))
Press [q] to stop, [?] for help
frame=   13 fps=0.0 q=0.0 size=       0kB time=00:00:00.00 bitrate=N/A speed=   0x    frame=   21 fps= 20 q=28.0 size=       1kB time=-00:00:00.08 bitrate=N/A speed=N/A    frame=   26 fps= 17 q=44.0 size=       1kB time=00:00:00.12 bitrate=  46.5kbits/s speed=0.0818x    frame=   32 fps= 15 q=45.0 size=       1kB time=00:00:00.37 bitrate=  15.6kbits/s speed=0.178x    frame=   43 fps= 16 q=44.0 size=       1kB time=00:00:00.83 bitrate=   7.0kbits/s speed=0.318x    frame=   56 fps= 18 q=42.0 size=       1kB time=00:00:01.37 bitrate=   4.3kbits/s speed=0.436x    frame=   68 fps= 18 q=41.0 size=       1kB time=00:00:01.87 bitrate=   3.1kbits/s speed=0.509x    frame=   69 fps= 11 q=41.0 size=       1kB time=00:00:01.91 bitrate=   3.1kbits/s speed=0.307x    frame=   70 fps=7.3 q=41.0 size=       1kB time=00:00:01.95 bitrate=   3.0kbits/s speed=0.205x    frame=   71 fps=5.8 q=41.0 size=       1kB time=00:00:02.00 bitrate=   2.9kbits/s speed=0.164x    frame=   82 fps=6.4 q=41.0 size=       1kB time=00:00:02.45 bitrate=   2.4kbits/s speed=0.193x    frame=   93 fps=7.0 q=40.0 size=       1kB time=00:00:02.91 bitrate=   2.0kbits/s speed=0.22x    frame=  104 fps=7.5 q=40.0 size=       1kB time=00:00:03.37 bitrate=   1.7kbits/s speed=0.245x    frame=  115 fps=8.0 q=37.0 size=       1kB time=00:00:03.83 bitrate=   1.5kbits/s speed=0.268x    frame=  127 fps=8.6 q=39.0 size=    3845kB time=00:00:04.33 bitrate=7268.0kbits/s speed=0.292x    frame=  139 fps=9.0 q=39.0 size=    3845kB time=00:00:04.83 bitrate=6516.3kbits/s speed=0.314x    frame=  150 fps=9.4 q=39.0 size=    3845kB time=00:00:05.29 bitrate=5951.2kbits/s speed=0.333x    frame=  162 fps=9.9 q=38.0 size=    3845kB time=00:00:05.79 bitrate=5437.5kbits/s speed=0.353x    frame=  173 fps= 10 q=38.0 size=    3845kB time=00:00:06.25 bitrate=5039.1kbits/s speed=0.37x    frame=  185 fps= 11 q=38.0 size=    5596kB time=00:00:06.75 bitrate=6790.8kbits/s speed=0.388x    frame=  197 fps= 11 q=38.0 size=    5596kB time=00:00:07.25 bitrate=6322.6kbits/s speed=0.404x    frame=  208 fps= 11 q=38.0 size=    6335kB time=00:00:07.70 bitrate=6731.5kbits/s speed=0.417x    frame=  220 fps= 12 q=37.0 size=    6335kB time=00:00:08.20 bitrate=6321.5kbits/s speed=0.431x    frame=  232 fps= 12 q=37.0 size=    6335kB time=00:00:08.70 bitrate=5958.6kbits/s speed=0.445x    frame=  245 fps= 12 q=37.0 size=    6335kB time=00:00:09.25 bitrate=5609.5kbits/s speed=0.461x    frame=  257 fps= 12 q=36.0 size=    6335kB time=00:00:09.75 bitrate=5321.9kbits/s speed=0.474x    frame=  269 fps= 13 q=36.0 size=    6335kB time=00:00:10.25 bitrate=5062.3kbits/s speed=0.487x    frame=  282 fps= 13 q=36.0 size=    6335kB time=00:00:10.79 bitrate=4808.1kbits/s speed= 0.5x    frame=  298 fps= 13 q=35.0 size=    8551kB time=00:00:11.45 bitrate=6113.2kbits/s speed=0.518x    frame=  311 fps= 14 q=35.0 size=    8551kB time=00:00:12.00 bitrate=5837.1kbits/s speed=0.53x    frame=  327 fps= 14 q=34.0 size=    8551kB time=00:00:12.66 bitrate=5529.8kbits/s speed=0.547x    frame=  344 fps= 15 q=33.0 size=    8551kB time=00:00:13.37 bitrate=5237.1kbits/s speed=0.565x    frame=  361 fps= 15 q=33.0 size=    8551kB time=00:00:14.08 bitrate=4973.8kbits/s speed=0.582x    frame=  376 fps= 15 q=32.0 size=    8551kB time=00:00:14.70 bitrate=4762.5kbits/s speed=0.596x    frame=  388 fps= 15 q=32.0 size=   10512kB time=00:00:15.20 bitrate=5662.1kbits/s speed=0.604x    frame=  400 fps= 16 q=32.0 size=   10512kB time=00:00:15.70 bitrate=5481.9kbits/s speed=0.611x    frame=  412 fps= 16 q=31.0 size=   10512kB time=00:00:16.20 bitrate=5312.8kbits/s speed=0.618x    frame=  425 fps= 16 q=32.0 size=   10512kB time=00:00:16.75 bitrate=5140.9kbits/s speed=0.627x    frame=  436 fps= 16 q=32.0 size=   10512kB time=00:00:17.20 bitrate=5004.0kbits/s speed=0.632x    frame=  449 fps= 16 q=32.0 size=   12545kB time=00:00:17.75 bitrate=5789.5kbits/s speed=0.639x    frame=  464 fps= 16 q=32.0 size=   12545kB time=00:00:18.37 bitrate=5592.6kbits/s speed=0.65x    frame=  477 fps= 17 q=32.0 size=   12545kB time=00:00:18.91 bitrate=5432.4kbits/s speed=0.657x    frame=  484 fps= 17 q=31.0 size=   12545kB time=00:00:19.20 bitrate=5350.1kbits/s speed=0.655x    frame=  499 fps= 17 q=32.0 size=   12545kB time=00:00:19.83 bitrate=5181.5kbits/s speed=0.663x    frame=  500 fps= 17 q=-1.0 Lsize=   15283kB time=00:00:20.70 bitrate=6045.5kbits/s speed=0.684x    
video:15278kB audio:0kB subtitle:0kB other streams:0kB global headers:0kB muxing overhead: 0.031225%
bench: utime=71.676s
bench: maxrss=935224kB
[libx264 @ 0x2ce61c0] frame I:8     Avg QP:26.95  size:114351
[libx264 @ 0x2ce61c0] frame P:284   Avg QP:32.06  size: 38439
[libx264 @ 0x2ce61c0] frame B:208   Avg QP:29.84  size: 18329
[libx264 @ 0x2ce61c0] consecutive B-frames: 41.2%  8.0%  6.0% 44.8%
[libx264 @ 0x2ce61c0] mb I  I16..4: 37.4% 57.1%  5.5%
[libx264 @ 0x2ce61c0] mb P  I16..4: 17.9% 19.3%  0.2%  P16..4: 11.3%  3.9%  0.9%  0.0%  0.0%    skip:46.4%
[libx264 @ 0x2ce61c0] mb B  I16..4:  2.6%  2.0%  0.1%  B16..8: 10.4%  2.5%  0.2%  direct: 2.0%  skip:80.3%  L0:42.5% L1:49.8% BI: 7.8%
[libx264 @ 0x2ce61c0] final ratefactor: 29.16
[libx264 @ 0x2ce61c0] 8x8 transform intra:51.4% inter:60.3%
[libx264 @ 0x2ce61c0] coded y,uvDC,uvAC intra: 16.2% 14.4% 0.7% inter: 2.3% 3.5% 0.0%
[libx264 @ 0x2ce61c0] i16 v,h,dc,p: 47% 28% 13% 12%
[libx264 @ 0x2ce61c0] i8 v,h,dc,ddl,ddr,vr,hd,vl,hu: 17% 24% 44%  3%  2%  2%  3%  2%  3%
[libx264 @ 0x2ce61c0] i4 v,h,dc,ddl,ddr,vr,hd,vl,hu: 18% 25% 12%  8%  8%  6%  9%  5%  9%
[libx264 @ 0x2ce61c0] i8c dc,h,v,p: 75% 12% 12%  1%
[libx264 @ 0x2ce61c0] Weighted P-Frames: Y:0.4% UV:0.0%
[libx264 @ 0x2ce61c0] kb/s:6007.29
